<?xml version="1.0" encoding="UTF-8"?>
<svg xmlns:xodm="http://www.corel.com/coreldraw/odm/2003" xmlns="http://www.w3.org/2000/svg" xmlns:xlink="http://www.w3.org/1999/xlink" version="1.1" id="Layer_1" x="0px" y="0px" viewBox="0 0 2500 568" style="enable-background:new 0 0 2500 568;" xml:space="preserve">
<style type="text/css">
	.st0{fill-rule:evenodd;clip-rule:evenodd;}
</style>
<g id="Layer_x0020_1">
	<path class="st0" d="M564.8,0H0.4v568h564.4V369.7h-93.7C438.8,442.1,366.2,492.4,283,492.4c-114.7,0-207.5-94.3-207.5-208.8   c0-114.6,92.8-208,207.5-208c84.8,0,157.4,52,189.7,126h92L564.8,0L564.8,0z M1111.3,369.7c-33.1,72.3-105,122.7-188.9,122.7   c-111.4,0-202.7-89.4-206.7-200.7H1205V0H640.6v568H1205V369.7L1111.3,369.7L1111.3,369.7z M1118.6,221.8h-394h0   c25-93.4,108.2-146.3,197.8-146.3S1089.5,125.1,1118.6,221.8z M2423.7,283.6c0,115.4-92.1,208.8-206.7,208.8   c-113.9,0-206.7-94.3-206.7-208.8c0-114.6,92.1-208,206.7-208S2423.7,168.2,2423.7,283.6z M2499.6,0h-564.4v568h564.4V0z    M1771,369.7h93.7V568h-584.6V0h95.3v283.6c0,126.8,93.7,208,205.1,208C1666.8,491.6,1742.7,444.5,1771,369.7L1771,369.7   L1771,369.7z"></path>
</g>
</svg>
